<?xml version="1.0" encoding="UTF-8" standalone="no" ?>
<!DOCTYPE svg PUBLIC "-//W3C//DTD SVG 1.1//EN" "http://www.w3.org/Graphics/SVG/1.1/DTD/svg11.dtd">
<svg xmlns="http://www.w3.org/2000/svg" xmlns:xlink="http://www.w3.org/1999/xlink" version="1.1" width="1080" height="1080" viewBox="0 0 1080 1080" xml:space="preserve">
<desc>Created with Fabric.js 5.2.4</desc>
<defs>
</defs>
<g transform="matrix(1 0 0 1 540 540)" id="f634dedc-edce-42af-a444-2c217535ff10"  >
<rect style="stroke: none; stroke-width: 1; stroke-dasharray: none; stroke-linecap: butt; stroke-dashoffset: 0; stroke-linejoin: miter; stroke-miterlimit: 4; fill: rgb(255,255,255); fill-rule: nonzero; opacity: 1; visibility: hidden;" vector-effect="non-scaling-stroke"  x="-540" y="-540" rx="0" ry="0" width="1080" height="1080" />
</g>
<g transform="matrix(1 0 0 1 540 540)" id="afbf6bd7-32db-4f8f-a282-3f54ce5a9ac5"  >
</g>
<g transform="matrix(31.76 0 0 31.76 540 540)"  >
<g style=""   >
		<g transform="matrix(1 0 0 1 -0.13 -0.05)" clip-path="url(#CLIPPATH_3)"  >
<clipPath id="CLIPPATH_3" >
	<rect transform="matrix(1 0 0 1 0 0.01)" id="clip0_1149_344" x="-16.5" y="-16.9125" rx="0" ry="0" width="33" height="33.825" />
</clipPath>
<path style="stroke: none; stroke-width: 1; stroke-dasharray: none; stroke-linecap: butt; stroke-dashoffset: 0; stroke-linejoin: miter; stroke-miterlimit: 4; fill: rgb(0,0,0); fill-rule: nonzero; opacity: 1;" vector-effect="non-scaling-stroke"  transform=" translate(-16.87, -17.45)" d="M 8.94727 0.695 C 4.87383 1.48777 1.7543 4.44746 0.684375 8.54346 C 0.452344 9.40229 0.439453 10.0629 0.439453 17.4622 C 0.439453 24.8614 0.452344 25.522 0.684375 26.3809 C 1.68984 30.2522 4.38398 32.9741 8.30273 34.084 C 8.98594 34.2822 9.99141 34.3086 16.875 34.3086 C 24.0938 34.3086 24.7383 34.2954 25.5762 34.0575 C 29.3531 33.0269 32.0086 30.2654 33.0914 26.2487 C 33.2848 25.5484 33.3105 24.5178 33.3105 17.4622 C 33.3105 10.4065 33.2848 9.37587 33.0914 8.67558 C 32.1762 5.29309 30.1652 2.80906 27.2648 1.47456 C 25.3957 0.615723 25.5504 0.628933 17.1973 0.602509 C 12.8402 0.589294 9.32109 0.628933 8.94727 0.695 Z M 24.4289 3.86609 C 27.1746 4.36818 29.6496 6.90506 30.1395 9.7194 C 30.3328 10.7896 30.3328 24.1347 30.1395 25.2049 C 29.6496 28.0193 27.1746 30.5561 24.4289 31.0582 C 23.3848 31.2564 10.3652 31.2564 9.32109 31.0582 C 6.57539 30.5561 4.10039 28.0193 3.61055 25.2049 C 3.41719 24.1347 3.41719 10.7896 3.61055 9.7194 C 3.82969 8.42454 4.62891 6.90506 5.60859 5.91409 C 6.53672 4.94955 8.04492 4.09071 9.20508 3.8793 C 10.1332 3.69432 23.475 3.68111 24.4289 3.86609 Z" stroke-linecap="round" />
</g>
		<g transform="matrix(1 0 0 1 8.73 -9.11)" clip-path="url(#CLIPPATH_4)"  >
<clipPath id="CLIPPATH_4" >
	<rect transform="matrix(1 0 0 1 -8.86 9.07)" id="clip0_1149_344" x="-16.5" y="-16.9125" rx="0" ry="0" width="33" height="33.825" />
</clipPath>
<path style="stroke: none; stroke-width: 1; stroke-dasharray: none; stroke-linecap: butt; stroke-dashoffset: 0; stroke-linejoin: miter; stroke-miterlimit: 4; fill: rgb(0,0,0); fill-rule: nonzero; opacity: 1;" vector-effect="non-scaling-stroke"  transform=" translate(-25.73, -8.39)" d="M 25.0225 7.5525 C 24.4424 8.10744 24.5842 9.03235 25.2932 9.37588 C 26.3631 9.9044 27.3299 8.4774 26.4791 7.61857 C 26.0924 7.20897 25.4221 7.18254 25.0225 7.5525 Z" stroke-linecap="round" />
</g>
		<g transform="matrix(1 0 0 1 -0.13 -0.04)" clip-path="url(#CLIPPATH_5)"  >
<clipPath id="CLIPPATH_5" >
	<rect transform="matrix(1 0 0 1 0 0)" id="clip0_1149_344" x="-16.5" y="-16.9125" rx="0" ry="0" width="33" height="33.825" />
</clipPath>
<path style="stroke: none; stroke-width: 1; stroke-dasharray: none; stroke-linecap: butt; stroke-dashoffset: 0; stroke-linejoin: miter; stroke-miterlimit: 4; fill: rgb(0,0,0); fill-rule: nonzero; opacity: 1;" vector-effect="non-scaling-stroke"  transform=" translate(-16.87, -17.46)" d="M 15.07 9.21754 C 12.0535 9.87818 9.44964 12.5736 8.818 15.6786 C 7.59339 21.6773 12.7625 26.9757 18.6149 25.7204 C 21.6828 25.0598 24.2867 22.3908 24.9313 19.2461 C 26.1559 13.221 20.9481 7.92267 15.07 9.21754 Z M 18.9887 12.6793 C 20.1617 13.2343 20.9094 14.0006 21.4895 15.1898 C 21.9407 16.1411 21.9664 16.26 21.9664 17.4624 C 21.9664 18.6648 21.9407 18.7837 21.4895 19.735 C 20.9094 20.9374 20.1617 21.6773 18.9629 22.2587 C 18.1766 22.6418 17.9832 22.6815 16.8746 22.6815 C 15.766 22.6815 15.5727 22.6418 14.7864 22.2587 C 13.5875 21.6773 12.8399 20.9374 12.2598 19.735 C 11.8086 18.7837 11.7828 18.6648 11.7828 17.4756 C 11.7828 16.3261 11.8215 16.1279 12.1953 15.3219 C 12.711 14.1988 13.4457 13.3796 14.4125 12.8643 C 15.418 12.3094 15.9852 12.1772 17.1582 12.2301 C 17.9446 12.2697 18.3442 12.3754 18.9887 12.6793 Z" stroke-linecap="round" />
</g>
</g>
</g>
</svg>