<?xml version="1.0" encoding="UTF-8" standalone="no" ?>
<!DOCTYPE svg PUBLIC "-//W3C//DTD SVG 1.1//EN" "http://www.w3.org/Graphics/SVG/1.1/DTD/svg11.dtd">
<svg xmlns="http://www.w3.org/2000/svg" xmlns:xlink="http://www.w3.org/1999/xlink" version="1.1" width="1080" height="1080" viewBox="0 0 1080 1080" xml:space="preserve">
<desc>Created with Fabric.js 5.2.4</desc>
<defs>
</defs>
<g transform="matrix(1 0 0 1 540 540)" id="75ec920b-b639-4484-a5b8-a618894b8b6a"  >
<rect style="stroke: none; stroke-width: 1; stroke-dasharray: none; stroke-linecap: butt; stroke-dashoffset: 0; stroke-linejoin: miter; stroke-miterlimit: 4; fill: rgb(255,255,255); fill-rule: nonzero; opacity: 1; visibility: hidden;" vector-effect="non-scaling-stroke"  x="-540" y="-540" rx="0" ry="0" width="1080" height="1080" />
</g>
<g transform="matrix(1 0 0 1 540 540)" id="75a9a9a1-df28-4113-8ee9-f1b4f7d6f6cf"  >
</g>
<g transform="matrix(25.71 0 0 25.71 540 540)"  >
<g style=""   >
		<g transform="matrix(1 0 0 1 -0.38 -0.04)" clip-path="url(#CLIPPATH_3)"  >
<clipPath id="CLIPPATH_3" >
	<rect transform="matrix(1 0 0 1 0 0)" id="clip0_1149_338" x="-20.625" y="-15.2625" rx="0" ry="0" width="41.25" height="30.525" />
</clipPath>
<path style="stroke: none; stroke-width: 1; stroke-dasharray: none; stroke-linecap: butt; stroke-dashoffset: 0; stroke-linejoin: miter; stroke-miterlimit: 4; fill: rgb(0,0,0); fill-rule: nonzero; opacity: 1;" vector-effect="non-scaling-stroke"  transform=" translate(-20.62, -15.46)" d="M 16.8104 0.534225 C 13.6495 0.558733 9.80087 0.646257 8.44617 0.723282 C 6.20543 0.852819 5.06967 1.15741 4.03311 1.90663 C 3.73207 2.1237 3.13682 2.74338 2.89051 3.09698 C 1.70343 4.80899 1.08081 6.88161 0.769503 10.1586 C 0.482141 13.1905 0.488983 17.9379 0.786608 20.9243 C 1.08081 23.9072 1.66238 25.9238 2.67841 27.5027 C 3.79364 29.2322 5.15519 29.9395 7.79618 30.1635 C 8.88747 30.258 11.9014 30.3316 16.5539 30.3806 C 22.1814 30.4401 30.1317 30.3526 32.8719 30.202 C 35.7182 30.0445 37.1789 29.4213 38.2942 27.8913 C 39.5394 26.1758 40.1894 24.0227 40.5007 20.5917 C 40.7538 17.7663 40.7538 13.138 40.5007 10.3336 C 40.2236 7.28773 39.6933 5.30964 38.7115 3.65715 C 37.846 2.20422 36.8779 1.4515 35.3556 1.05588 C 34.2129 0.758291 32.7932 0.667265 28.0997 0.583239 C 26.1394 0.548229 19.0478 0.52022 16.8104 0.534225 Z M 28.9378 4.32585 C 32.6598 4.41688 34.0077 4.5044 34.5721 4.69696 C 35.0477 4.86151 35.2974 5.08908 35.6326 5.66675 C 36.4195 7.01465 36.7787 8.80368 36.9839 12.3642 C 37.0387 13.3515 37.0387 17.5808 36.9839 18.5611 C 36.8403 21.0328 36.6384 22.5102 36.269 23.7601 C 36.009 24.6459 35.5711 25.4861 35.1742 25.8677 C 34.6064 26.4104 33.929 26.4839 28.5102 26.603 C 25.9205 26.659 15.2539 26.659 12.7224 26.603 C 7.88513 26.4944 6.95805 26.4209 6.3628 26.0848 C 5.75386 25.7487 5.1894 24.6844 4.83704 23.2245 C 4.43679 21.558 4.25548 19.5134 4.21784 16.2679 C 4.15627 11.2579 4.52573 7.94242 5.34677 6.16739 C 5.84623 5.08908 6.22596 4.74597 7.10857 4.59193 C 7.93302 4.44839 10.2524 4.35386 14.3405 4.29434 C 16.896 4.25933 26.9502 4.28033 28.9378 4.32585 Z" stroke-linecap="round" />
</g>
		<g transform="matrix(1 0 0 1 0.51 -0.04)" clip-path="url(#CLIPPATH_4)"  >
<clipPath id="CLIPPATH_4" >
	<rect transform="matrix(1 0 0 1 -0.89 0)" id="clip0_1149_338" x="-20.625" y="-15.2625" rx="0" ry="0" width="41.25" height="30.525" />
</clipPath>
<path style="stroke: none; stroke-width: 1; stroke-dasharray: none; stroke-linecap: butt; stroke-dashoffset: 0; stroke-linejoin: miter; stroke-miterlimit: 4; fill: rgb(0,0,0); fill-rule: nonzero; opacity: 1;" vector-effect="non-scaling-stroke"  transform=" translate(-21.51, -15.46)" d="M 16.9648 15.4627 L 16.9648 21.0679 L 17.0948 20.9873 C 22.3426 17.7699 26.0646 15.4767 26.0646 15.4627 C 26.0646 15.4487 22.3426 13.1555 17.0948 9.93807 L 16.9648 9.85754 L 16.9648 15.4627 Z" stroke-linecap="round" />
</g>
</g>
</g>
</svg>